<svg width="24" height="24" viewBox="0 0 24 24" fill="none" xmlns="http://www.w3.org/2000/svg">
<path fill-rule="evenodd" clip-rule="evenodd" d="M4 12C4 7.58172 7.58172 4 12 4C16.4183 4 20 7.58172 20 12C20 16.4183 16.4183 20 12 20C7.58172 20 4 16.4183 4 12ZM12 2C6.47715 2 2 6.47715 2 12C2 17.5228 6.47715 22 12 22C17.5228 22 22 17.5228 22 12C22 6.47715 17.5228 2 12 2ZM10.7549 7.56794C10.448 7.36337 10.0535 7.3443 9.72834 7.51832C9.40318 7.69234 9.2002 8.0312 9.2002 8.39999V15.6C9.2002 15.9688 9.40318 16.3076 9.72834 16.4817C10.0535 16.6557 10.448 16.6366 10.7549 16.432L16.1549 12.832C16.4331 12.6466 16.6002 12.3343 16.6002 12C16.6002 11.6656 16.4331 11.3534 16.1549 11.1679L10.7549 7.56794ZM13.7974 12L11.2002 13.7315V10.2685L13.7974 12Z" fill="#18181E"/>
<path fill-rule="evenodd" clip-rule="evenodd" d="M10.7549 7.56794C10.448 7.36337 10.0535 7.3443 9.72834 7.51832C9.40318 7.69234 9.2002 8.0312 9.2002 8.39999V15.6C9.2002 15.9688 9.40318 16.3076 9.72834 16.4817C10.0535 16.6557 10.448 16.6366 10.7549 16.432L16.1549 12.832C16.4331 12.6466 16.6002 12.3343 16.6002 12C16.6002 11.6656 16.4331 11.3534 16.1549 11.1679L10.7549 7.56794ZM13.7974 12L11.2002 13.7315V10.2685L13.7974 12Z" fill="#18181E"/>
<path fill-rule="evenodd" clip-rule="evenodd" d="M12 2C6.47715 2 2 6.47715 2 12C2 17.5228 6.47715 22 12 22C17.5228 22 22 17.5228 22 12C22 6.47715 17.5228 2 12 2ZM4 12C4 7.58172 7.58172 4 12 4C16.4183 4 20 7.58172 20 12C20 16.4183 16.4183 20 12 20C7.58172 20 4 16.4183 4 12Z" fill="#18181E"/>
</svg>
