<svg width="25" height="24" viewBox="0 0 25 24" fill="none" xmlns="http://www.w3.org/2000/svg">
<path d="M16.9031 10.2399C17.3118 9.86843 17.3419 9.23598 16.9704 8.82733C16.5989 8.41867 15.9665 8.38855 15.5578 8.76006L10.7305 13.1485L8.90314 11.4873C8.49448 11.1158 7.86204 11.1459 7.49053 11.5546C7.11902 11.9633 7.14914 12.5957 7.5578 12.9672L10.0578 15.2399C10.4392 15.5867 11.0217 15.5867 11.4031 15.2399L16.9031 10.2399Z" fill="#52C41A"/>
<path fill-rule="evenodd" clip-rule="evenodd" d="M12.1152 2C6.59239 2 2.11523 6.47715 2.11523 12C2.11523 17.5228 6.59239 22 12.1152 22C17.6381 22 22.1152 17.5228 22.1152 12C22.1152 6.47715 17.6381 2 12.1152 2ZM4.11523 12C4.11523 7.58172 7.69696 4 12.1152 4C16.5335 4 20.1152 7.58172 20.1152 12C20.1152 16.4183 16.5335 20 12.1152 20C7.69696 20 4.11523 16.4183 4.11523 12Z" fill="#52C41A"/>
</svg>
