<svg width="25" height="25" viewBox="0 0 25 25" fill="none" xmlns="http://www.w3.org/2000/svg">
<path fill-rule="evenodd" clip-rule="evenodd" d="M21.5625 3.92951C21.7578 3.73425 21.7578 3.41767 21.5625 3.2224C21.3673 3.02714 21.0507 3.02714 20.8554 3.2224L12.209 11.8689L3.56254 3.2224C3.36728 3.02714 3.05069 3.02714 2.85543 3.2224C2.66017 3.41767 2.66017 3.73425 2.85543 3.92951L11.5019 12.576L2.85543 21.2224C2.66017 21.4177 2.66017 21.7342 2.85543 21.9295C3.05069 22.1248 3.36728 22.1248 3.56254 21.9295L12.209 13.2831L20.8554 21.9295C21.0507 22.1248 21.3673 22.1248 21.5625 21.9295C21.7578 21.7342 21.7578 21.4177 21.5625 21.2224L12.9161 12.576L21.5625 3.92951Z" fill="#18181E"/>
<path d="M21.5625 3.92951C21.7578 3.73425 21.7578 3.41767 21.5625 3.2224C21.3673 3.02714 21.0507 3.02714 20.8554 3.2224L12.209 11.8689L3.56254 3.2224C3.36728 3.02714 3.05069 3.02714 2.85543 3.2224C2.66017 3.41767 2.66017 3.73425 2.85543 3.92951L11.5019 12.576L2.85543 21.2224C2.66017 21.4177 2.66017 21.7342 2.85543 21.9295C3.05069 22.1248 3.36728 22.1248 3.56254 21.9295L12.209 13.2831L20.8554 21.9295C21.0507 22.1248 21.3673 22.1248 21.5625 21.9295C21.7578 21.7342 21.7578 21.4177 21.5625 21.2224L12.9161 12.576L21.5625 3.92951Z" fill="#18181E"/>
</svg>
