<svg width="24" height="24" viewBox="0 0 24 24" fill="none" xmlns="http://www.w3.org/2000/svg">
<path d="M15.2929 2.29289C14.9024 2.68342 14.9024 3.31658 15.2929 3.70711L16.5858 5H7.97143C6.87863 5 5.8574 5.48799 5.12384 6.31089C4.39363 7.13003 4 8.2188 4 9.33333V11C4 11.5523 4.44772 12 5 12C5.55228 12 6 11.5523 6 11V9.33333C6 8.67976 6.23249 8.07283 6.61678 7.64173C6.99772 7.21439 7.48809 7 7.97143 7H16.5858L15.2929 8.29289C14.9024 8.68342 14.9024 9.31658 15.2929 9.70711C15.6834 10.0976 16.3166 10.0976 16.7071 9.70711L19.7071 6.70711C20.0976 6.31658 20.0976 5.68342 19.7071 5.29289L16.7071 2.29289C16.3166 1.90237 15.6834 1.90237 15.2929 2.29289Z" fill="#03267D"/>
<path d="M8.70711 15.7071C9.09763 15.3166 9.09763 14.6834 8.70711 14.2929C8.31658 13.9024 7.68342 13.9024 7.29289 14.2929L4.29289 17.2929C3.90237 17.6834 3.90237 18.3166 4.29289 18.7071L7.29289 21.7071C7.68342 22.0976 8.31658 22.0976 8.70711 21.7071C9.09763 21.3166 9.09763 20.6834 8.70711 20.2929L7.41421 19H15.0909C16.175 19 17.1821 18.5054 17.9014 17.6812C18.6169 16.8614 19 15.7753 19 14.6667V13C19 12.4477 18.5523 12 18 12C17.4477 12 17 12.4477 17 13V14.6667C17 15.3261 16.7701 15.9358 16.3945 16.3662C16.0227 16.7922 15.5499 17 15.0909 17H7.41421L8.70711 15.7071Z" fill="#03267D"/>
</svg>
