<svg width="24" height="24" viewBox="0 0 24 24" fill="none" xmlns="http://www.w3.org/2000/svg">
<path d="M4.13325 2C3.87173 2 3.65587 2.05284 3.48568 2.15853C3.31963 2.25865 3.19718 2.42274 3.11831 2.65079C3.03944 2.87329 3 3.16253 3 3.51852V11.0161C3 11.5223 3.0851 11.9006 3.25529 12.1509C3.42964 12.4012 3.6538 12.5263 3.92777 12.5263C4.19759 12.5263 4.4176 12.4039 4.5878 12.1592C4.76214 11.9089 4.84932 11.5279 4.84932 11.0161V7.94316H7.89415C8.17227 7.94316 8.3819 7.85972 8.52304 7.69285C8.66418 7.52598 8.73475 7.3007 8.73475 7.01702C8.73475 6.93096 8.72825 6.85027 8.71526 6.77496C8.68543 6.60203 8.62136 6.45744 8.52304 6.3412C8.51305 6.32862 8.50267 6.3165 8.49191 6.30485C8.35509 6.15665 8.15583 6.08255 7.89415 6.08255H4.84932V3.91067H8.49191C8.78663 3.91067 9.00457 3.82445 9.1457 3.65202C9.18987 3.59791 9.22732 3.53865 9.25807 3.47426C9.32845 3.32684 9.36364 3.15247 9.36364 2.95116C9.36364 2.66748 9.29099 2.43943 9.1457 2.26699C9.00457 2.089 8.78663 2 8.49191 2H4.13325Z" fill="#03267D"/>
<path d="M15 10.4211C15 9.8397 15.4477 9.36842 16 9.36842H21C21.5523 9.36842 22 9.8397 22 10.4211V15.6842C22 16.2656 21.5523 16.7368 21 16.7368C20.4477 16.7368 20 16.2656 20 15.6842V12.9875L13.9413 19.4914C13.7533 19.6932 13.4961 19.8069 13.2276 19.807C12.9591 19.8071 12.7018 19.6935 12.5137 19.4918L9.13636 15.8709L3.71356 21.6848C3.32664 22.0997 2.6935 22.1058 2.29941 21.6985C1.90532 21.2912 1.89951 20.6247 2.28644 20.2099L8.4228 13.631C8.61084 13.4294 8.86797 13.3158 9.13636 13.3158C9.40476 13.3158 9.66189 13.4294 9.84993 13.631L13.2268 17.2514L18.6091 11.4737H16C15.4477 11.4737 15 11.0024 15 10.4211Z" fill="#03267D"/>
</svg>
