<svg width="24" height="24" viewBox="0 0 24 24" fill="none" xmlns="http://www.w3.org/2000/svg">
<path fill-rule="evenodd" clip-rule="evenodd" d="M12.6301 2.22368C12.2628 1.92543 11.7367 1.92544 11.3694 2.22371C9.36698 3.84975 7.02151 4.69309 4.00421 4.81181C3.47328 4.8327 3.05139 5.26516 3.04363 5.79644C3.0392 6.0997 3.03287 6.40959 3.02625 6.73291L4.02604 6.75339L3.02625 6.73291L3.02441 6.82257C2.97045 9.4506 2.90816 12.4847 3.96071 15.2115C5.06044 18.0604 7.32622 20.4732 11.679 21.9472C11.887 22.0176 12.1125 22.0176 12.3205 21.9472C16.6736 20.4732 18.9396 18.0603 20.0394 15.2113C21.0921 12.4844 21.0299 9.45025 20.976 6.82213L20.9741 6.73244V6.7324C20.9675 6.40928 20.9612 6.09959 20.9568 5.79644C20.949 5.26514 20.5271 4.83269 19.9961 4.81181C16.9786 4.69318 14.6327 3.84974 12.6301 2.22368ZM5.02631 6.75013C7.70712 6.51127 9.99191 5.70573 11.9998 4.25892C14.0079 5.70575 16.293 6.51136 18.9741 6.75016L18.9746 6.77334C19.0304 9.50342 19.0716 12.1649 18.1736 14.491C17.3351 16.663 15.6338 18.6333 11.9998 19.9409C8.36606 18.6334 6.66491 16.6632 5.82652 14.4912C4.92866 12.1652 4.96993 9.50384 5.02583 6.77386L5.02631 6.75013ZM16.7372 9.67572C17.1103 9.26861 17.0828 8.63604 16.6757 8.26285C16.2686 7.88965 15.636 7.91716 15.2628 8.32428L10.5 13.5201L8.73715 11.597C8.36396 11.1899 7.73139 11.1624 7.32428 11.5356C6.91716 11.9088 6.88965 12.5413 7.26285 12.9485L9.76285 15.6757C9.95226 15.8824 10.2197 16 10.5 16C10.7803 16 11.0477 15.8824 11.2372 15.6757L16.7372 9.67572Z" fill="#03267D"/>
</svg>
