<svg width="24" height="24" viewBox="0 0 24 24" fill="none" xmlns="http://www.w3.org/2000/svg">
<path fill-rule="evenodd" clip-rule="evenodd" d="M6.6 10.1818V7.45455C6.6 6.00791 7.16893 4.62053 8.18162 3.5976C9.19432 2.57467 10.5678 2 12 2C13.4322 2 14.8057 2.57467 15.8184 3.5976C16.8311 4.62053 17.4 6.00791 17.4 7.45455V10.1818H18.3C19.7912 10.1818 21 11.4029 21 12.9091V19.2727C21 20.779 19.7912 22 18.3 22H5.7C4.20883 22 3 20.779 3 19.2727V12.9091C3 11.4029 4.20883 10.1818 5.7 10.1818H6.6ZM9.45442 4.88325C10.1295 4.2013 11.0452 3.81818 12 3.81818C12.9548 3.81818 13.8705 4.2013 14.5456 4.88325C15.2207 5.5652 15.6 6.49012 15.6 7.45455V10.1818H8.4V7.45455C8.4 6.49012 8.77928 5.5652 9.45442 4.88325ZM5.7 12C5.20294 12 4.8 12.407 4.8 12.9091V19.2727C4.8 19.7748 5.20294 20.1818 5.7 20.1818H18.3C18.7971 20.1818 19.2 19.7748 19.2 19.2727V12.9091C19.2 12.407 18.7971 12 18.3 12H5.7Z" fill="#B9B9B9"/>
</svg>
