<svg width="24" height="24" viewBox="0 0 24 24" fill="none" xmlns="http://www.w3.org/2000/svg">
<path d="M5.83476 7.98002C6.13131 8.06131 6.38095 8.13944 6.58369 8.21442C6.66798 8.24514 6.74783 8.27977 6.82326 8.31829L6.82841 8.32093C7.02341 8.42126 7.18862 8.54777 7.32403 8.70046C7.34527 8.72336 7.36533 8.74704 7.38423 8.7715L7.39275 8.7827C7.42467 8.82522 7.45313 8.87006 7.47813 8.91723C7.48306 8.92652 7.48785 8.93591 7.49251 8.94538C7.54469 9.05148 7.58002 9.16889 7.59851 9.2976C7.60866 9.36826 7.61373 9.44232 7.61373 9.51979C7.61373 9.67116 7.59123 9.81376 7.54623 9.94759L7.54214 9.95953C7.46093 10.1931 7.31061 10.3998 7.0912 10.5795L7.0794 10.5891C6.73819 10.8628 6.29613 11.0039 5.75322 11.0122L5.7404 11.0124L5.7211 11.0126L5.71788 11.0126L5.70172 11.0126C5.2897 11.0126 4.95708 10.9432 4.70386 10.8043C4.54428 10.7139 4.40686 10.6088 4.2916 10.4889L4.28403 10.481C4.27136 10.4676 4.25896 10.4541 4.24683 10.4404C4.19718 10.3842 4.1521 10.325 4.11159 10.2627L4.08713 10.2233C4.02671 10.124 3.96797 10.0143 3.91092 9.89417L3.90165 9.87452C3.85211 9.76885 3.80385 9.65523 3.75687 9.53368C3.74629 9.5063 3.73577 9.47853 3.72532 9.45035C3.62661 9.17724 3.50644 8.97125 3.36481 8.83238C3.27398 8.74054 3.16907 8.67907 3.05009 8.64797L3.03344 8.64384C2.97742 8.63067 2.91835 8.62408 2.85622 8.62408C2.6073 8.62408 2.40129 8.71435 2.2382 8.89488C2.12925 9.01556 2.05767 9.15367 2.02347 9.30922C2.00782 9.38039 2 9.45521 2 9.53368C2 9.72321 2.02579 9.91543 2.07736 10.1103L2.08152 10.1258C2.08925 10.1543 2.09753 10.1828 2.10635 10.2114L2.11638 10.2432C2.18248 10.4481 2.27673 10.656 2.39914 10.8668C2.47847 10.9999 2.56464 11.1253 2.65765 11.2428L2.67655 11.2665L2.69262 11.2863C2.90892 11.5504 3.16088 11.7739 3.4485 11.957C3.61286 12.06 3.78925 12.1491 3.97766 12.2242L3.99726 12.232C4.48538 12.4232 5.05353 12.5212 5.70172 12.5261L5.75322 12.5263C6.53004 12.5263 7.20172 12.3874 7.76824 12.1097C7.87112 12.0593 7.96948 12.0053 8.0633 11.9479L8.06612 11.9461C8.48759 11.6874 8.81748 11.3578 9.05579 10.9571C9.31586 10.5262 9.46173 10.0471 9.49341 9.51979C9.4978 9.44665 9.5 9.37259 9.5 9.2976C9.5 8.78378 9.41416 8.35097 9.24249 7.99917C9.23102 7.97474 9.21922 7.9506 9.2071 7.92676C9.08624 7.68895 8.93329 7.48034 8.74824 7.30094C8.73763 7.29065 8.72691 7.28046 8.71608 7.27036C8.65849 7.21664 8.59791 7.16563 8.53434 7.11734C8.44381 7.0476 8.34724 6.98101 8.24464 6.91758C8.00672 6.77049 7.73634 6.64034 7.43348 6.52715C7.35017 6.4957 7.26493 6.46478 7.17775 6.43438L7.17024 6.43177C7.05189 6.39059 6.92997 6.35038 6.80448 6.31112L6.74684 6.29324C6.50776 6.21965 6.25595 6.14949 5.99142 6.08277C5.92138 6.06369 5.85461 6.04537 5.7911 6.0278L5.76138 6.01957L5.59871 5.97408C5.45372 5.93316 5.33022 5.89721 5.22819 5.86622L5.21844 5.86325C5.18508 5.85309 5.15408 5.84347 5.12544 5.83439L5.07725 5.81891C4.8927 5.75874 4.7103 5.67542 4.53004 5.56895C4.50746 5.55561 4.48548 5.54194 4.4641 5.52795L4.44618 5.51604C4.30746 5.42252 4.19512 5.31477 4.10916 5.19279L4.10515 5.18706L4.09484 5.17188C4.03064 5.07509 3.98787 4.96674 3.96655 4.84683C3.95595 4.78719 3.95064 4.7247 3.95064 4.65935C3.95064 4.55389 3.96611 4.45343 3.99705 4.35798C4.06252 4.15597 4.19726 3.97637 4.40129 3.81919L4.4043 3.81687L4.41303 3.81019C4.71624 3.58011 5.11147 3.46507 5.59871 3.46507L5.65132 3.46544C5.67706 3.46579 5.70244 3.46641 5.72747 3.4673L5.76879 3.46901C5.85337 3.47305 5.93378 3.48021 6.01002 3.49047C6.22049 3.51881 6.39915 3.57086 6.546 3.64663C6.55927 3.65347 6.57229 3.66052 6.58504 3.66775C6.63169 3.69422 6.67485 3.72327 6.71454 3.75492L6.73045 3.76789L6.74035 3.77629L6.75751 3.79142C6.89221 3.91076 7.01613 4.05699 7.12926 4.23013L7.13834 4.24412C7.18559 4.31741 7.23094 4.39545 7.27439 4.47822L7.27834 4.48577C7.31188 4.55005 7.34428 4.61717 7.37554 4.68713C7.50858 4.95561 7.6309 5.15003 7.74249 5.27038C7.76981 5.29767 7.8 5.32173 7.83305 5.34259L7.83634 5.34465C7.94297 5.41086 8.07907 5.44397 8.24464 5.44397C8.48498 5.44397 8.68455 5.34676 8.84335 5.15234C9.00644 4.95329 9.08798 4.7311 9.08798 4.48577C9.08798 4.45988 9.08738 4.43393 9.08618 4.40791C9.07952 4.26314 9.05433 4.11637 9.01061 3.9676C9.00305 3.94191 8.99475 3.91555 8.98609 3.88974C8.97796 3.86554 8.96935 3.84128 8.96025 3.81697C8.9407 3.76472 8.9189 3.71223 8.89485 3.65949C8.76609 3.37712 8.56223 3.10864 8.28326 2.85405C8.27054 2.84222 8.25766 2.83051 8.24464 2.81891L8.2373 2.81241C8.10908 2.69912 7.96628 2.59647 7.80891 2.50445L7.79363 2.49558C7.62203 2.39658 7.43331 2.31008 7.22747 2.23608C6.80687 2.07869 6.30687 2 5.72747 2C5.68421 2 5.6413 2.00042 5.59871 2.00126C4.92723 2.0145 4.33925 2.13212 3.83476 2.35412C3.71676 2.40503 3.60487 2.46087 3.49912 2.52163L3.49549 2.52372C3.12217 2.73891 2.82539 3.01566 2.60515 3.35398C2.3539 3.73994 2.21407 4.17506 2.18568 4.65935C2.18207 4.72105 2.18026 4.78354 2.18026 4.84683C2.18026 5.29348 2.25706 5.68535 2.41066 6.02245C2.45923 6.12904 2.51547 6.23015 2.5794 6.32579L2.59608 6.34979C2.67512 6.46228 2.76184 6.56804 2.85622 6.66706C3.07487 6.89645 3.33468 7.0897 3.63566 7.24681L3.66738 7.26316C3.90366 7.37986 4.16891 7.48921 4.46313 7.59121L4.48924 7.60021L4.54725 7.6199C4.80174 7.70534 5.07712 7.78547 5.37339 7.8603C5.43161 7.87466 5.48847 7.88894 5.54396 7.90312L5.57519 7.91113C5.66538 7.93434 5.7519 7.9573 5.83476 7.98002Z" fill="#B9B9B9"/>
<path d="M15 10.4211C15 9.8397 15.4477 9.36842 16 9.36842H21C21.5523 9.36842 22 9.8397 22 10.4211V15.6842C22 16.2656 21.5523 16.7368 21 16.7368C20.4477 16.7368 20 16.2656 20 15.6842V12.9875L13.9413 19.4914C13.7533 19.6932 13.4961 19.8069 13.2276 19.807C12.9591 19.8071 12.7018 19.6935 12.5137 19.4918L9.13636 15.8709L3.71356 21.6848C3.32664 22.0997 2.6935 22.1058 2.29941 21.6985C1.90532 21.2912 1.89951 20.6247 2.28644 20.2099L8.4228 13.631C8.61084 13.4294 8.86797 13.3158 9.13636 13.3158C9.40476 13.3158 9.66189 13.4294 9.84993 13.631L13.2268 17.2514L18.6091 11.4737H16C15.4477 11.4737 15 11.0024 15 10.4211Z" fill="#B9B9B9"/>
</svg>
