<svg width="24" height="24" viewBox="0 0 24 24" fill="none" xmlns="http://www.w3.org/2000/svg">
<path d="M18 13C18.5523 13 19 12.5523 19 12C19 11.4477 18.5523 11 18 11C17.4477 11 17 11.4477 17 12C17 12.5523 17.4477 13 18 13Z" fill="#B9B9B9"/>
<path fill-rule="evenodd" clip-rule="evenodd" d="M3 3C2.44772 3 2 3.44772 2 4V20C2 20.5523 2.44772 21 3 21H21C21.5523 21 22 20.5523 22 20V6.66667C22 6.11438 21.5523 5.66667 21 5.66667H20.2V4C20.2 3.44772 19.7523 3 19.2 3H3ZM18.2 5V5.66667H6.6C6.04772 5.66667 5.6 6.11438 5.6 6.66667C5.6 7.21895 6.04772 7.66667 6.6 7.66667H20V19H4V5H18.2Z" fill="#B9B9B9"/>
</svg>
