<svg id="Layer_1" data-name="Layer 1" xmlns="http://www.w3.org/2000/svg" xmlns:xlink="http://www.w3.org/1999/xlink" viewBox="0 0 32 32"><defs><style>.cls-1{fill:none;}.cls-2{clip-path:url(#clip-path);}.cls-3{fill:#fdfdfd;}.cls-4{fill:#eeb70b;}.cls-5{fill:#fefefe;}</style><clipPath id="clip-path"><circle class="cls-1" cx="16" cy="16" r="16"/></clipPath></defs><g class="cls-2"><path class="cls-3" d="M15.69,34.4H-2.6c-.09,0-.11,0-.11-.12V-2.29c0-.09,0-.12.11-.12q18.3,0,36.58,0c.1,0,.12,0,.12.12V34.29c0,.09,0,.12-.12.12Z"/><path class="cls-4" d="M15.44,33.28A17.27,17.27,0,1,1,33,16.29,17.26,17.26,0,0,1,15.44,33.28Z"/><path class="cls-5" d="M15.72,27.51a.18.18,0,0,1-.09-.08c-.38-.37-.75-.74-1.12-1.12l-2-2L8.76,20.58c-.1-.09-.1-.14,0-.23.81-.8,1.6-1.6,2.4-2.4.07-.07.11-.07.18,0l4.3,4.29c.08.07.11,0,.16,0L20,18l.05-.05c.05-.06.08-.05.13,0l1.14,1.14,1.3,1.3c.08.08.08.11,0,.19l-4.86,4.85-2,2A.6.6,0,0,0,15.72,27.51Z"/><path class="cls-5" d="M22.74,11.54s0,.05,0,.07L20.22,14.1c0,.05-.08,0-.13,0-.81-.81-1.63-1.62-2.43-2.44l-1.89-1.9c-.07-.08-.1,0-.14,0l-2.39,2.38-1.92,1.92c-.07.06-.1.06-.16,0L9,12c-.11-.12-.22-.24-.34-.35s0-.07,0-.12l2.05-2,.07-.06,4.81-4.82c.07-.06.1-.06.16,0l6.88,6.9Z"/><path class="cls-5" d="M6.79,13.42s0,0,.06,0L9.34,16c.05.05.05.08,0,.12l-2.49,2.5c-.06.06-.09,0-.12,0L5.26,17.08l-1-1c-.07-.07-.07-.1,0-.18.77-.76,1.54-1.53,2.3-2.3a1.37,1.37,0,0,0,.17-.17Z"/><path class="cls-5" d="M15.73,13.4l0,.06,2.46,2.46c.06.06.08.1,0,.17l-2.45,2.45c-.07.07-.1.06-.16,0-.81-.82-1.63-1.64-2.45-2.45,0-.06-.07-.09,0-.15l2.47-2.47Z"/><path class="cls-5" d="M27.21,16l-.06.07-2.47,2.48c-.06.05-.08.05-.13,0l-2.48-2.48c-.05,0-.05-.08,0-.14.82-.82,1.65-1.64,2.47-2.47.05-.05.08-.05.13,0l2.47,2.47Z"/></g></svg>