<svg id="Layer_1" data-name="Layer 1" xmlns="http://www.w3.org/2000/svg" xmlns:xlink="http://www.w3.org/1999/xlink" viewBox="0 0 32 32"><defs><style>.cls-1{fill:none;}.cls-2{clip-path:url(#clip-path);}.cls-3{fill:#051823;}.cls-4{fill:#fefefe;}.cls-5{fill:#020f16;}.cls-6{fill:#709a30;}.cls-7{fill:#fdfdfd;}.cls-8{fill:#c0db9a;}.cls-9{fill:#fbfcfc;}.cls-10{fill:#8daf5c;}.cls-11{fill:#f6f7f7;}.cls-12{fill:#a8c285;}.cls-13{fill:#96c454;}.cls-14{fill:#01090d;}.cls-15{fill:#071a25;}.cls-16{fill:#0a1d28;}.cls-17{fill:#82aa49;}</style><clipPath id="clip-path"><circle class="cls-1" cx="16" cy="16" r="16"/></clipPath></defs><g class="cls-2"><path class="cls-3" d="M32.74-.64q0,16.52,0,33c0,.3-.07.37-.37.37h-33a.87.87,0,0,1,0-.45V-.17c0-.57-.06-.51.51-.51H32.29A.87.87,0,0,1,32.74-.64Z"/><path class="cls-4" d="M32.74-.64H-.18c-.38,0-.47.09-.47.47q0,16.45,0,32.92c-.17-.08-.08-.23-.08-.34,0-4.78,0-9.56,0-14.34q0-9.21,0-18.43c0-.3.06-.36.36-.36H32.4C32.51-.72,32.66-.81,32.74-.64Z"/><path class="cls-5" d="M21.4,9.71a6,6,0,0,1,.69,4.15,9.93,9.93,0,0,1-1.18,3.31,6.74,6.74,0,0,1-4.76,3.22A3.65,3.65,0,0,1,13.5,20a2.91,2.91,0,0,1-1-1.1c-.43-.79-.83-1.6-1.25-2.4a1.51,1.51,0,0,0-.34-.52.8.8,0,0,1-.21-.53,5.63,5.63,0,0,1,1-3.85c.09-.13.15-.34.39-.29a.4.4,0,0,1,0,.35,5.55,5.55,0,0,0-.5,2.47c0,.17.09.24.2.32a1.61,1.61,0,0,0,1.35.65c.29,0,.62,0,.78.33,0,.28-.27.29-.45.36-.42.16-.85.24-1.29.37,0,.19.19.23.29.33a4.68,4.68,0,0,0,4.82.39C19.5,16,20.51,14.13,21,11.93A15.06,15.06,0,0,0,21.27,10C21.28,9.91,21.27,9.78,21.4,9.71Z"/><path class="cls-6" d="M11.48,14.21a5.12,5.12,0,0,1,.65-2.91c1.31-2,3.34-2.84,5.52-3.42a11.57,11.57,0,0,1,2.88-.33.74.74,0,0,1,.44.06c.05.43-.31.63-.53.89a20.74,20.74,0,0,1-5,4.38A11.38,11.38,0,0,1,12,14.29C11.81,14.32,11.63,14.37,11.48,14.21Z"/><path class="cls-7" d="M6.48,22.18c.4.1.65.32.6.75a.74.74,0,0,1-.8.63c-.73,0-1.45,0-2.17,0-.18,0-.24-.06-.23-.24V21.12c0-.17,0-.25.23-.24.72,0,1.44,0,2.16,0,.51,0,.82.37.73.76C7,21.86,6.89,21.92,6.48,22.18Z"/><path class="cls-7" d="M20.26,22.71c0-.51,0-1,0-1.52,0-.22,0-.32.3-.32s.33.07.32.33c0,.62,0,1.25,0,1.87,0,.16.12.43-.1.47A.72.72,0,0,1,20,23.4c-.49-.53-1-1-1.52-1.55-.08-.08-.13-.21-.31-.22,0,.53,0,1.05,0,1.57,0,.23,0,.38-.31.38s-.29-.19-.29-.39c0-.6,0-1.2,0-1.79,0-.17-.12-.46.12-.5s.56-.13.81.13c.46.49.94.95,1.4,1.43a2,2,0,0,1,.24.33Z"/><path class="cls-7" d="M23.14,23.57c-.4,0-.81,0-1.21,0-.2,0-.26-.06-.26-.26,0-.72,0-1.45,0-2.17,0-.2.06-.27.26-.26.82,0,1.64,0,2.46,0,.16,0,.26,0,.26.21s-.09.25-.27.25c-.56,0-1.11,0-1.67,0-.21,0-.43-.08-.43.3s.22.32.45.33h.67c.13,0,.31-.07.31.19s-.14.23-.3.22-.58,0-.87,0-.26.18-.25.35-.11.41.24.4h1.84c.16,0,.28,0,.28.23s-.15.21-.3.21Z"/><path class="cls-7" d="M25.06,23.52c.39-.35.73-.71,1.11-1s.32-.35,0-.58-.7-.64-1.08-1a1.12,1.12,0,0,1,1.14.29c.61.64.66.64,1.26,0a1.13,1.13,0,0,1,1.14-.32c-.39.37-.74.73-1.12,1.05s-.21.31,0,.5c.39.32.75.69,1.14,1.05a1.06,1.06,0,0,1-1.21-.36c-.59-.58-.62-.59-1.2,0A1.12,1.12,0,0,1,25.06,23.52Z"/><path class="cls-8" d="M21.4,9.71a10.69,10.69,0,0,1-1.12,4.61A5.78,5.78,0,0,1,15,17.46a3.92,3.92,0,0,1-2.63-.92c.17-.29.37-.07.52,0a3.83,3.83,0,0,0,2.16.52,5.76,5.76,0,0,0,5.11-3.39,11.53,11.53,0,0,0,.94-4.29.7.7,0,0,1,0-.32A.18.18,0,0,1,21.37,9Z"/><path class="cls-9" d="M14.2,20.88h1.09c.16,0,.36-.08.36.24s-.24.21-.38.21c-.49,0-1,0-1.46,0-.27,0-.5,0-.5.39s.22.36.47.35h.71c.16,0,.27,0,.27.21s-.1.26-.28.25a.74.74,0,0,0-.21,0c-.29,0-.64-.08-.86,0s-.07.51-.07.78-.17.21-.31.21-.32.06-.31-.2c0-.77,0-1.53,0-2.29,0-.19.09-.2.23-.2Z"/><path class="cls-10" d="M11.48,14.21a7.44,7.44,0,0,0,2.69-.78,15.46,15.46,0,0,0,4.29-3A18.08,18.08,0,0,0,21,7.61c.13,0,.32-.06.32.18-.05.07-.06.16-.11.24a.76.76,0,0,1-.19.21c-.51.6-1,1.2-1.58,1.77a18.37,18.37,0,0,1-4.34,3.41,10.06,10.06,0,0,1-2.83,1.09.75.75,0,0,1-.53,0C11.54,14.47,11.42,14.42,11.48,14.21Z"/><path class="cls-4" d="M10.59,20.88c.46,0,.92,0,1.38,0,.21,0,.24.07.25.26s-.07.28-.27.25h0c-.34,0-.8-.16-1,.08s0,.66,0,1c0,1.09,0,1.09-.29,1.09s-.32,0-.32-1.11c0-.27,0-.53,0-.79s-.06-.3-.28-.29-.56,0-.83,0-.24-.06-.23-.24,0-.28.23-.27C9.65,20.89,10.12,20.88,10.59,20.88Z"/><path class="cls-11" d="M7.8,22.19c0-.34,0-.67,0-1s.09-.32.34-.32.3.08.29.31c0,.71,0,1.42,0,2.12,0,.28-.15.27-.34.27s-.31,0-.3-.26S7.8,22.56,7.8,22.19Z"/><path class="cls-4" d="M16.73,22.22c0,.36,0,.72,0,1.08s-.13.27-.33.27-.29,0-.28-.26q0-1.08,0-2.16c0-.23.07-.29.28-.27s.35,0,.33.26S16.73,21.86,16.73,22.22Z"/><path class="cls-12" d="M21.14,8l.15-.16A4.58,4.58,0,0,1,21.37,9L21.23,9C21,8.7,21.09,8.32,21.14,8Z"/><path class="cls-13" d="M21.21,9.37A9.35,9.35,0,0,1,19.48,15a5.87,5.87,0,0,1-3.66,2.11,4.37,4.37,0,0,1-3.12-.53c-.09-.06-.2-.19-.33-.06l-.43-.3s0-.07-.08-.14a9.13,9.13,0,0,0,2-.63.63.63,0,0,1,.32-.26A13,13,0,0,0,18.32,12a1.07,1.07,0,0,1,.27-.25,1.38,1.38,0,0,0,.52-.34c.58-.59,1.17-1.18,1.7-1.82C20.91,9.44,21,9.26,21.21,9.37Z"/><path class="cls-14" d="M18.64,11.79A17.14,17.14,0,0,1,16,14.27a8.45,8.45,0,0,1-2.13,1.2c-.24-.27-.56-.24-.88-.26a1.36,1.36,0,0,1-1.29-.73,10.79,10.79,0,0,0,4.52-1.9,21.78,21.78,0,0,0,4.48-4.2c.08-.1.14-.22.26-.26.12.16,0,.3,0,.43a17.88,17.88,0,0,1-2,3A1.92,1.92,0,0,1,18.64,11.79Z"/><path class="cls-15" d="M5.36,22.39c.22,0,.45,0,.66,0a.38.38,0,0,1,.4.36.33.33,0,0,1-.34.35,9.9,9.9,0,0,1-1.44,0c-.29,0-.1-.34-.14-.52s0-.22.2-.21.44,0,.66,0Z"/><path class="cls-16" d="M5.29,22H4.87c-.2,0-.4.06-.39-.29s.11-.38.39-.36.75,0,1.12,0c.17,0,.35.07.36.28s-.17.31-.35.33a5.61,5.61,0,0,1-.71,0Z"/><path class="cls-17" d="M18.64,11.79a24,24,0,0,0,2.15-3.21A1.08,1.08,0,0,0,21,8.12L21.14,8A4,4,0,0,1,21.23,9l0,.33a2.75,2.75,0,0,0-.73.75c-.47.54-1,1-1.51,1.53A.89.89,0,0,1,18.64,11.79Z"/></g></svg>