<svg id="Layer_1" data-name="Layer 1" xmlns="http://www.w3.org/2000/svg" viewBox="0 0 32 32"><defs><style>.cls-1{fill:#051823;}.cls-2{fill:#0081d6;}.cls-3{fill:#4ea7e3;}.cls-4{fill:#0082d7;}</style></defs><circle class="cls-1" cx="16" cy="16" r="16"/><path class="cls-2" d="M6.66,10.31H21.09c.34,0,.41.1.41.42q0,3.77,0,7.55c0,.3-.09.39-.38.37a9.61,9.61,0,0,0-1.2,0c-.24,0-.3-.08-.3-.31,0-1.89,0-3.78,0-5.67,0-.29-.08-.36-.37-.35H8.83c-.27,0-.36.06-.36.35,0,3.76,0,7.51,0,11.27,0,.31.09.37.38.37H19.26c.29,0,.41-.05.37-.37s0-.47,0-.71.06-.24.23-.24h1.4c.15,0,.24,0,.23.2,0,1,0,2.07,0,3.1H6.66a.67.67,0,0,1,0-.37V10.68A.68.68,0,0,1,6.66,10.31Z"/><path class="cls-3" d="M6.66,10.31v16c-.15-.07-.07-.2-.07-.3V10.29Z"/><path class="cls-4" d="M25.36,13.78c0,2.56,0,5.11,0,7.66,0,.27-.05.36-.34.36q-7.11,0-14.2,0c-.28,0-.35-.08-.35-.36,0-2.58,0-5.17,0-7.75,0-.26,0-.36.33-.35a8.42,8.42,0,0,0,1.23,0c.27,0,.31.09.31.33,0,1.92,0,3.83,0,5.74,0,.29.05.39.37.39q5.22,0,10.44,0c.31,0,.37-.08.37-.37q0-5.63,0-11.24c0-.32-.1-.37-.38-.37q-5.2,0-10.41,0c-.32,0-.4.09-.39.4,0,.78,0,.78-.76.78-.28,0-.55,0-.82,0s-.28-.07-.28-.29c0-.86,0-1.73,0-2.59,0-.28.09-.32.33-.31H21.55c1.16,0,2.32,0,3.48,0,.27,0,.33.08.33.34C25.35,8.68,25.36,11.23,25.36,13.78Z"/></svg>