<svg id="Layer_1" data-name="Layer 1" xmlns="http://www.w3.org/2000/svg" xmlns:xlink="http://www.w3.org/1999/xlink" viewBox="0 0 32 32"><defs><style>.cls-1{fill:none;}.cls-2{clip-path:url(#clip-path);}.cls-3{fill:#131d38;}.cls-4{fill:#feb019;}.cls-5{fill:#edb64b;}.cls-6{fill:#fcb019;}.cls-7{fill:#907647;}.cls-8{fill:#a67a25;}.cls-9{fill:#a4854a;}.cls-10{fill:#856529;}.cls-11{fill:#987127;}.cls-12{fill:#b7924d;}.cls-13{fill:#cba14f;}.cls-14{fill:#b98523;}.cls-15{fill:#cf9420;}.cls-16{fill:#947948;}.cls-17{fill:#795e2b;}.cls-18{fill:#726144;}.cls-19{fill:#fbb019;}.cls-20{fill:#655842;}.cls-21{fill:#a7874b;}.cls-22{fill:#3b3633;}.cls-23{fill:#353333;}.cls-24{fill:#3b393d;}.cls-25{fill:#3c3a3d;}.cls-26{fill:#b18123;}.cls-27{fill:#ab7c24;}.cls-28{fill:#aa7c24;}.cls-29{fill:#a6864a;}.cls-30{fill:#a8874b;}.cls-31{fill:#34353c;}.cls-32{fill:#111b38;}.cls-33{fill:#d69720;}.cls-34{fill:#615542;}.cls-35{fill:#3e3c3d;}.cls-36{fill:#d1a550;}.cls-37{fill:#daab51;}.cls-38{fill:#81622a;}.cls-39{fill:#66512d;}.cls-40{fill:#6d5d43;}.cls-41{fill:#b08024;}.cls-42{fill:#d3971f;}.cls-43{fill:#3a3633;}.cls-44{fill:#0c1837;}</style><clipPath id="clip-path"><circle class="cls-1" cx="16" cy="16" r="16"/></clipPath></defs><g class="cls-2"><path class="cls-3" d="M16.17,32.6H-.1c-.26,0-.35,0-.35-.33Q-.43,16-.45-.29c0-.26.07-.32.32-.32q16.29,0,32.57,0c.24,0,.33,0,.33.31q0,16.31,0,32.61c0,.25-.06.3-.3.3Z"/><path class="cls-4" d="M9.76,14.57c0-.71,0-1.41,0-2.12,0-.3.1-.36.38-.36.73,0,.73,0,.73.74,0,.48,0,1,0,1.45,0,.3.05.34.34.24A2.18,2.18,0,0,1,14,15.69a2.28,2.28,0,0,1-1,2.91,2.21,2.21,0,0,1-3.27-1.88c0-.71,0-1.43,0-2.15Z"/><path class="cls-4" d="M20.19,14.59c0-.73,0-1.46,0-2.2,0-.23.08-.29.31-.3.8,0,.8,0,.8.76,0,.48,0,1,0,1.45,0,.28.06.32.33.22a2.08,2.08,0,0,1,2.38.54,2.25,2.25,0,0,1-2,3.78,2.2,2.2,0,0,1-1.79-2c0-.75,0-1.49,0-2.24Z"/><path class="cls-4" d="M18.26,18.63c-.18.06-.36.13-.54.18A2.21,2.21,0,0,1,15,16.72c0-.68,0-1.36,0-2,0-.23.07-.3.3-.31.8,0,.8,0,.8.77,0,.47,0,.94,0,1.41a1.11,1.11,0,1,0,2.21,0q0-.93,0-1.86c0-.29.09-.35.35-.35.92,0,.73-.09.74.71,0,1.31,0,2.63,0,3.94a2.18,2.18,0,0,1-1.85,2.08c-.25,0-.37,0-.34-.3a2.36,2.36,0,0,0,0-.46c0-.22,0-.32.29-.39A1.08,1.08,0,0,0,18.26,18.63Z"/><path class="cls-5" d="M7.7,15.43a.13.13,0,0,0,0,.06c.07.34-.15.49-.4.63a4.58,4.58,0,0,1-1.16.66,3,3,0,0,1-1.54,0,1.25,1.25,0,0,1-.87-.47c-.34-.22-.8-.34-.81-.86s.44-.89.87-1.15a2.07,2.07,0,0,1,.84-.3A7.07,7.07,0,0,1,5.77,14c.21.1.45.05.66.15a8.24,8.24,0,0,1,.9.54C7.57,14.86,7.83,15.05,7.7,15.43Z"/><path class="cls-4" d="M27.84,17.17V15.76c0-.18,0-.3-.24-.27s-.32-.08-.3-.31a5.61,5.61,0,0,0,0-.58c0-.18.06-.27.24-.24s.31-.12.31-.35c0-.52,0-1,0-1.57,0-.28.09-.34.35-.34.76,0,.76,0,.76.76,0,.4,0,.8,0,1.2,0,.2,0,.33.27.3s.29.08.28.28a5.61,5.61,0,0,0,0,.58c0,.19,0,.3-.26.27s-.29.1-.29.31c0,.91,0,1.83,0,2.74,0,.25-.07.32-.32.32-.79,0-.79,0-.79-.78Z"/><path class="cls-6" d="M25.3,16.58c0-.66,0-1.32,0-2,0-.22.07-.28.28-.29.85,0,.85,0,.85.81,0,1.1,0,2.2,0,3.31,0,.31-.08.4-.39.39-.73,0-.73,0-.73-.75Z"/><path class="cls-7" d="M4.64,14.21a3.5,3.5,0,0,0-1.43.86.75.75,0,0,0-.24.41,0,0,0,0,1-.08,0,6.4,6.4,0,0,1-.44-1.41.39.39,0,0,0,.08-.22c0-.25.08-.48.41-.49.13,0,.2-.13.28-.21s.29-.14.42-.2a.74.74,0,0,0-.49.27c-.35.15-.42.11-.47-.32l.11-.1.08-.05s0,0,0-.08l0,0a.09.09,0,0,1,0-.07l0,0,.06,0c.32-.08.18-.31.12-.47s-.18-.18,0-.21a1.75,1.75,0,0,1,.91.59A3.25,3.25,0,0,1,3.77,12a.41.41,0,0,1,0-.11c.07-.16,0-.33.07-.49-.12-.24.1-.21.21-.26s.3-.08.4-.18.27,0,.39.05a.3.3,0,0,1,.13.39,2.16,2.16,0,0,1-.22.49.5.5,0,0,0,.08.75c.17.22.29.46.45.69s.13.56-.25.6A.4.4,0,0,0,4.64,14.21Z"/><path class="cls-8" d="M4.62,16.68c.38,0,.76.05,1.14,0A3.91,3.91,0,0,0,7.27,16c.24.14.16.32.06.49a.8.8,0,0,1-.43.4c0,.13.1.15.15.21.18.24.15.42-.14.49a1.26,1.26,0,0,0-.4.26c-.21.15-.38,0-.57-.07s-.38.13-.56.19a1.83,1.83,0,0,0-1.21,1.1c-.06.23-.13.45-.38.54a.92.92,0,0,1-.42-.34c-.06-.12-.08-.26-.15-.38-.22-.37-.16-.6.22-.76a.41.41,0,0,0,.29-.5c-.06-.61,0-.62.52-.77C4.38,16.81,4.5,16.73,4.62,16.68Z"/><path class="cls-9" d="M4.64,14.21,4.58,14c0-.08-.1-.17,0-.26a.22.22,0,0,1,.3,0c.1.08.24.15.33,0s0-.23-.1-.32-.23-.51-.41-.73c0-.1.07-.16.16-.17s.06-.07.06-.12a.85.85,0,0,1,.14-.49c.24-.17.41,0,.56.15s.5.27.62-.14a1.26,1.26,0,0,1,.46-.76,1.15,1.15,0,0,1,.67.47,1.74,1.74,0,0,1-.28,1.12,3.06,3.06,0,0,1-1.21,1.31s-.06.05-.09.09Z"/><path class="cls-10" d="M6.45,17.75c-.19-.69.35-.26.58-.36-.1-.2-.29-.28-.43-.4a.22.22,0,0,1-.1-.21c0-.13.13-.08.2-.08.47,0,.52-.37.57-.71l.44-.5A2.14,2.14,0,0,1,7.87,18h0l-.1.08s0,0,0,.05,0,0,0,0v.08c-.13.08-.13.28-.3.33s-.26-.09-.38-.15L7,18.33c0-.14-.1-.27-.28-.29S6.42,18,6.45,17.75Z"/><path class="cls-11" d="M3.79,19.6A5.07,5.07,0,0,1,4,18.82a2.26,2.26,0,0,1,1-1c.19-.1.2,0,.28.1.54,0,.47.53.66.83,0,.08.07.22.13.33s0,.33-.22.37-.26-.1-.34-.24a1.9,1.9,0,0,0-.2-.35c.19.26.28.51-.11.72-.16.08,0,.32-.15.42A1.82,1.82,0,0,1,3.79,19.6Z"/><path class="cls-12" d="M5.79,14.18a1,1,0,0,1-.18-.5c.2-.07.33.29.42.15a3.44,3.44,0,0,1,.62-.78c.46-.38.23-1.07.72-1.39a1.93,1.93,0,0,1,.59.85,10.27,10.27,0,0,1-.7,1.68c0,.13-.18.27-.31.21s-.39,0-.58-.06Z"/><path class="cls-13" d="M6.37,14.34c.19,0,.33-.29.59-.09.09.07.12-.09.14-.18.16-.53.51-1,.65-1.5,0-.08.13-.08.21-.06a2.89,2.89,0,0,1-.26,2.92A2.64,2.64,0,0,0,6.37,14.34Z"/><path class="cls-14" d="M4.62,16.68c-.14.21-.21.52-.6.4-.13,0-.16.09-.13.22s.14.37.07.6-.08.46-.45.41-.31.2-.2.4a.63.63,0,0,1,.06.55,1.71,1.71,0,0,1-.56-.69c.06-.28-.21-.5-.13-.8,0-.1,0-.22,0-.32.24-.42.64-.71.85-1.15a.16.16,0,0,1,.22-.05A5,5,0,0,0,4.62,16.68Z"/><path class="cls-15" d="M3.79,16.25A4.36,4.36,0,0,1,3,17.4c-.21.24-.11.56-.09.84s0,.24-.08.33a2.91,2.91,0,0,1,.08-3.07l.08,0A5,5,0,0,0,3.79,16.25Z"/><path class="cls-16" d="M6.7,11.19c0,.13.27.3-.08.37-.09,0-.14.16-.13.28a.9.9,0,0,1-.34.63c-.22.25-.43.18-.61-.13-.08-.14-.12-.4-.4-.32A.3.3,0,0,1,5,12a.3.3,0,0,1-.11-.28c0-.13.09-.25.13-.39s.18-.23.28-.12.25,0,.32-.11.21-.13.29-.22A1.33,1.33,0,0,1,6.7,11.19Z"/><path class="cls-17" d="M5.12,20,5,19.64c0-.11-.15-.23,0-.34s.13.1.21.09.31-.09.22-.3-.07-.27-.26-.28-.17-.12-.2-.22A.1.1,0,0,1,5,18.47a.3.3,0,0,1,.33.11c.14.21.29.4.44.6s.22.08.24-.1.2-.33.44-.22A.93.93,0,0,1,6.6,19a.31.31,0,0,1,0,.31c-.2.17-.27.43-.56.57A1.09,1.09,0,0,1,5.12,20Z"/><path class="cls-18" d="M5.87,10.86a3,3,0,0,1-.45.9c-.27-.08-.11-.34-.22-.5-.2.1-.12.34-.24.46a1.19,1.19,0,0,0,0,.81.24.24,0,0,1-.06.09l-.16.1c-.27-.26-.42-.52-.09-.86a1.25,1.25,0,0,0,.2-.4c.08-.18,0-.29-.14-.4s-.14.09-.21.1-.28,0-.42,0A2,2,0,0,1,5.87,10.86Z"/><path class="cls-19" d="M26.5,13.22a.55.55,0,1,1-1.1,0,.56.56,0,0,1,.55-.56A.55.55,0,0,1,26.5,13.22Z"/><path class="cls-20" d="M3.21,13.18a.54.54,0,0,0,0,.22c.16.3,0,.24-.2.2s-.39,0-.34.28-.12.18-.23.21c0-.4-.17-.84.23-1.17.13.18.24.41.53.26Z"/><path class="cls-21" d="M3.88,12c.18.32.55.51.62.93a6.48,6.48,0,0,0-1.29-1.11c0-.06,0-.13.09-.14A.41.41,0,0,1,3.88,12Z"/><path class="cls-22" d="M7.36,19.15c0,.23-.2.19-.34.19H7a.69.69,0,0,1-.36-.41.31.31,0,0,1,.24-.35.2.2,0,0,1,.13,0C7.17,18.72,7.39,18.85,7.36,19.15Z"/><path class="cls-23" d="M7.44,18.49c.09-.12.14-.28.34-.25.1.27.19.54-.19.67a.19.19,0,0,1-.22-.15A.33.33,0,0,1,7.44,18.49Z"/><path class="cls-24" d="M3.88,12c-.11-.26-.46-.09-.58-.32a.18.18,0,0,1,.15-.19c.28,0,.53.07.44.45C3.89,12,3.88,12,3.88,12Z"/><path class="cls-25" d="M3.89,12c-.05-.25-.27-.32-.44-.45.11-.14.25-.09.38-.07C3.84,11.62,4.18,11.76,3.89,12Z"/><path class="cls-26" d="M7.43,18.73l.16.18c0,.1-.09.07-.14.08-.24,0-.32-.23-.46-.35s-.14-.32.13-.34c0,0,0,0,0,0S7.45,18.5,7.43,18.73Z"/><path class="cls-27" d="M6.62,19.3l-.1-.24c.28-.11.33.19.5.28H7C7,19.57,6.92,19.56,6.62,19.3Z"/><path class="cls-28" d="M7,18.64l.45.35c0,.06,0,.15-.09.16l-.42-.49,0,0Z"/><path class="cls-29" d="M2.72,12.67c-.05-.09-.07-.17.08-.15h.05a.26.26,0,0,1,.09.05l0,0a.14.14,0,0,1,0,.19s-.1,0-.12-.05h0A.2.2,0,0,1,2.72,12.67Z"/><path class="cls-30" d="M3.05,12.52v.09a.11.11,0,0,1-.16,0h0l-.1-.09h0s0-.14,0-.14S3,12.47,3.05,12.52Z"/><path class="cls-31" d="M2.82,12.75H3l0,0a.13.13,0,0,0,0,.07c-.1.12-.17,0-.26,0Z"/><path class="cls-32" d="M2.72,12.67l.09.09Z"/><path class="cls-33" d="M7.78,18.16s0,0,0-.06l0,0A.19.19,0,0,1,7.78,18.16Z"/><path class="cls-3" d="M12,17.74a1.12,1.12,0,0,1,0-2.24,1.1,1.1,0,0,1,1.07,1.14A1.11,1.11,0,0,1,12,17.74Z"/><path class="cls-3" d="M22.39,17.74a1.12,1.12,0,0,1-1.09-1.13,1.11,1.11,0,0,1,1.14-1.11,1.09,1.09,0,0,1,1.06,1.14A1.1,1.1,0,0,1,22.39,17.74Z"/><path class="cls-34" d="M3.21,13.18c0-.35.36-.32.56-.42s.3.14.46.26l-1,.16Z"/><path class="cls-35" d="M2.88,12.59l.16,0v0a.38.38,0,0,1,.09.13L3,12.78a.08.08,0,0,1-.08,0H3Z"/><path class="cls-36" d="M3,12.76l.08,0a.2.2,0,0,0,0,.07Z"/><path class="cls-37" d="M3.13,12.72,3,12.59Z"/><path class="cls-38" d="M6.86,18.65c0,.12-.19.12-.16.26a.26.26,0,0,1-.22.09c-.17,0-.35-.12-.47.08-.12-.31-.47-.52-.44-.9,0-.15-.14-.19-.22-.28s.11-.19.16-.28c.16-.28.33-.32.52,0A1.47,1.47,0,0,0,6.6,18,.48.48,0,0,1,6.86,18.65Z"/><path class="cls-39" d="M6.86,18.65c-.05-.32-.35-.44-.52-.66s-.29-.2-.31-.4c.14.05.21.29.42.16.15.17.34.11.52.1s.21-.15.29,0,0,.19-.09.28a.87.87,0,0,0,0,.19c-.16.07-.09.22-.12.34l-.06,0Z"/><path class="cls-18" d="M5,12.43l.1.51a.92.92,0,0,1-.28-.32l0,0c0-.09,0-.2.09-.26S5.08,12.35,5,12.43Z"/><path class="cls-40" d="M5,12.43,5,12.35c-.25-.19-.2-.32.06-.43l.11.1C5.11,12.16,5.08,12.3,5,12.43Z"/><path class="cls-41" d="M7.43,18.73c-.11-.13-.28-.21-.32-.39l.33.15C7.37,18.56,7.78,18.67,7.43,18.73Z"/><polygon class="cls-42" points="7.87 18 7.86 17.97 7.87 18 7.87 18"/><path class="cls-9" d="M5,11.92a.34.34,0,0,0-.06.43l-.09.23c-.29-.31-.21-.59.08-.86Z"/><path class="cls-43" d="M6.48,19c0-.09.1-.18.22-.09a1.34,1.34,0,0,1,.32.43c-.22,0-.27-.31-.5-.28Z"/><path class="cls-44" d="M2.79,12.51c.06,0,.09,0,.1.09Z"/></g></svg>