<svg id="Layer_1" data-name="Layer 1" xmlns="http://www.w3.org/2000/svg" viewBox="0 0 32 32"><defs><style>.cls-1{fill:#273445;}.cls-2{fill:#fefefe;}.cls-3{fill:#67707c;}.cls-4{fill:#00c1cb;}</style></defs><path class="cls-1" d="M15.66,0h.75a3.5,3.5,0,0,0,.65,0,12.89,12.89,0,0,1,5.71,1.32A15.38,15.38,0,0,1,26.55,3.8a16,16,0,0,1,3.66,4.57,16.36,16.36,0,0,1,1.62,4.53c.09.52.09,1.06.13,1.58,0,.1,0,.21,0,.3v1.56A3.65,3.65,0,0,0,32,17a12.73,12.73,0,0,1-1.34,5.74,15.28,15.28,0,0,1-2.44,3.78,16.34,16.34,0,0,1-4.36,3.53,16.1,16.1,0,0,1-5.12,1.79,12.49,12.49,0,0,1-1.83.11,18.57,18.57,0,0,1-4.52-.31,16.1,16.1,0,0,1-5.43-2.42A15.77,15.77,0,0,1,2.08,24,14.79,14.79,0,0,1,.16,18.52,20.27,20.27,0,0,1,.06,15a13,13,0,0,1,.18-2.07,15.76,15.76,0,0,1,3.52-7.3A16,16,0,0,1,12.07.37,11.12,11.12,0,0,1,15,0,3.65,3.65,0,0,0,15.66,0Z"/><path class="cls-2" d="M15,.06A15.37,15.37,0,0,0,6.4,3.25a15.29,15.29,0,0,0-6,9.47A15.54,15.54,0,0,0,4.91,27.4a15,15,0,0,0,8.58,4.32,15.62,15.62,0,0,0,13.94-4.59,15.47,15.47,0,0,0,4.36-8.63A8.92,8.92,0,0,0,31.94,17c0-.05,0-.05,0,0q0,7.35,0,14.71c0,.22,0,.26-.26.26Q16,32,.26,32C0,32,0,32,0,31.74Q0,16,0,.26C0,0,0,0,.26,0H15S15,.05,15,.06Z"/><path class="cls-2" d="M32,14.78a6.54,6.54,0,0,1-.16-1.08,15.76,15.76,0,0,0-11-13A12.87,12.87,0,0,0,17.1.06s-.05,0,0,0H31.74C32,0,32,0,32,.26Q32,7.52,32,14.78Z"/><path class="cls-3" d="M15,.06a.43.43,0,0,1,0,0h.69A1.52,1.52,0,0,1,15,.06Z"/><path class="cls-3" d="M17.09,0a.07.07,0,0,1,0,0,1.47,1.47,0,0,1-.69,0Z"/><path class="cls-3" d="M32,17h0a1.52,1.52,0,0,1,0-.7Z"/><path class="cls-4" d="M18.71,22.62H23.2c.25,0,.34.07.33.33q0,.78,0,1.56c0,.26-.07.33-.33.33-2.52,0-5.05,0-7.57,0a9.67,9.67,0,0,1-3.92-.59,8.59,8.59,0,0,1-5.54-7.57,8.76,8.76,0,0,1,6.05-9.08,9.15,9.15,0,0,1,2.7-.4h8.29c.27,0,.33.09.32.34,0,.5,0,1,0,1.52,0,.28-.06.37-.36.37H15.41a7.26,7.26,0,0,0-2.85.42,6.39,6.39,0,0,0-4.2,5.55,6.54,6.54,0,0,0,5.18,7.12,7.15,7.15,0,0,0,1.46.13Z"/><path class="cls-4" d="M19.62,18.78l-2.07,2.06a.32.32,0,0,1-.26.07c-.92,0-1.83,0-2.75,0a4.94,4.94,0,0,1-.43-9.82c.87-.13,1.75,0,2.62-.06a1.5,1.5,0,0,1,1.39.58c.47.55,1,1,1.52,1.56a.43.43,0,0,1-.34.06c-1.48,0-2.95,0-4.43,0a2.69,2.69,0,0,0-2.72,2.08,2.72,2.72,0,0,0,2.62,3.4h4.8Z"/><path class="cls-4" d="M18,17.09c-1.05,0-2.1,0-3.14,0A1.1,1.1,0,0,1,13.72,16a1.06,1.06,0,0,1,.81-1,2.12,2.12,0,0,1,.5-.05H21.1a.64.64,0,0,1,.52.22,9.28,9.28,0,0,0,.71.69c.15.14.13.23,0,.35s-.51.48-.76.74a.54.54,0,0,1-.43.17Z"/><path class="cls-4" d="M19.84,20.92l2-2a.33.33,0,0,1,.25-.08h1.19c.16,0,.24,0,.24.22,0,.57,0,1.14,0,1.71,0,.12,0,.23-.17.23H19.88Z"/><path class="cls-4" d="M19.85,11.09a.32.32,0,0,1,.27-.06h3.09c.23,0,.33.05.32.31,0,.52,0,1,0,1.56,0,.21-.05.31-.27.28h-.07A2.07,2.07,0,0,1,21,12.3,13.54,13.54,0,0,0,19.85,11.09Z"/></svg>