<svg id="Layer_1" data-name="Layer 1" xmlns="http://www.w3.org/2000/svg" xmlns:xlink="http://www.w3.org/1999/xlink" viewBox="0 0 32 32"><defs><style>.cls-1{fill:none;}.cls-2{clip-path:url(#clip-path);}.cls-3{fill:#0655fc;}.cls-4{fill:#fefefe;}</style><clipPath id="clip-path"><circle class="cls-1" cx="16" cy="16" r="16"/></clipPath></defs><g class="cls-2"><path class="cls-3" d="M-1.64-1.67h35.2c.09,0,.11,0,.11.11V33.65a.28.28,0,0,1-.13,0h-35c-.16,0-.14,0-.14-.15v-35A.29.29,0,0,1-1.64-1.67Z"/><path class="cls-4" d="M-1.64-1.67V33.49c0,.16,0,.16.15.16H33.67s0,0,0,0H-1.55c-.1,0-.12,0-.12-.11q0-17.57,0-35.12S-1.69-1.64-1.64-1.67Z"/><path class="cls-4" d="M5.07,15.83a9.62,9.62,0,0,1,0-1,11.18,11.18,0,0,1,.21-1.29,11.46,11.46,0,0,1,.58-1.83,10.39,10.39,0,0,1,.75-1.49,11.56,11.56,0,0,1,.69-1c.16-.2.32-.41.5-.6s.31-.36.48-.52A13.69,13.69,0,0,1,9.82,6.8a11.56,11.56,0,0,1,1.81-1,10.69,10.69,0,0,1,2.13-.72c.4-.09.81-.15,1.21-.2a12,12,0,0,1,1.69-.06,11.2,11.2,0,0,1,2.64.43,12.26,12.26,0,0,1,1.53.57,10.09,10.09,0,0,1,1.54.86,11,11,0,0,1,.94.71,9,9,0,0,1,.85.78,12.07,12.07,0,0,1,1.16,1.41,10.91,10.91,0,0,1,.93,1.58,11.21,11.21,0,0,1,.84,2.31c0,.07,0,.09-.07.09h-.7c-.46,0-.92,0-1.38,0H23.72L22,13.5a.21.21,0,0,1-.23-.17A4.94,4.94,0,0,0,21,12a6,6,0,0,0-1.83-1.53,6.31,6.31,0,0,0-1.88-.67,5.91,5.91,0,0,0-1.68-.08,6.05,6.05,0,0,0-2,.52,5.85,5.85,0,0,0-1.36.85,5.27,5.27,0,0,0-.69.65,6.59,6.59,0,0,0-.79,1.09,6,6,0,0,0-.66,1.64,5.42,5.42,0,0,0-.13.9,6.66,6.66,0,0,0,0,1,5.2,5.2,0,0,0,.35,1.69,6.45,6.45,0,0,0,.71,1.35,6.64,6.64,0,0,0,1,1.09,6.09,6.09,0,0,0,1.57,1,5.46,5.46,0,0,0,1.47.46,6.91,6.91,0,0,0,1.36.09,5.59,5.59,0,0,0,1.93-.4A6.31,6.31,0,0,0,19.73,21a6.7,6.7,0,0,0,1.09-1,5.88,5.88,0,0,0,1-1.6.21.21,0,0,1,.25-.15H23c1,0,2,0,2.94,0H27c.05,0,.08,0,.06.07a11.71,11.71,0,0,1-.62,1.9,11.13,11.13,0,0,1-1.1,2,10.6,10.6,0,0,1-.7.92,10.88,10.88,0,0,1-.94,1A11.16,11.16,0,0,1,22.2,25.3a11,11,0,0,1-1.09.63,10.59,10.59,0,0,1-2.37.83c-.39.09-.78.15-1.17.2A10.19,10.19,0,0,1,16,27c-.4,0-.8,0-1.19-.08a11.74,11.74,0,0,1-1.67-.33A10.26,10.26,0,0,1,11.38,26a11.6,11.6,0,0,1-1.93-1.18,13.24,13.24,0,0,1-1.52-1.38,10,10,0,0,1-.82-1,10.82,10.82,0,0,1-1-1.81,10.58,10.58,0,0,1-.71-2.05,11.84,11.84,0,0,1-.21-1.19A11.31,11.31,0,0,1,5.07,15.83Z"/></g></svg>