<svg id="Layer_1" data-name="Layer 1" xmlns="http://www.w3.org/2000/svg" viewBox="0 0 32 32"><defs><style>.cls-1{fill:#62d0e4;}.cls-2{fill:#fefefe;}.cls-3{fill:#fdfefe;}</style></defs><path class="cls-1" d="M32.12,14.32v3.85a20.35,20.35,0,0,1-.78,4,16.47,16.47,0,0,1-5.46,7.07,20.43,20.43,0,0,1-2.21,1.44A11.33,11.33,0,0,1,18.3,32c-.15,0-.32,0-.46.08H14a19.53,19.53,0,0,1-4-.79A16.32,16.32,0,0,1,2.9,25.82,13.2,13.2,0,0,1,.17,19.75a28.18,28.18,0,0,1,0-7.34A13.12,13.12,0,0,1,3,6.27,15.35,15.35,0,0,1,11.63.33a21.12,21.12,0,0,1,6-.34A13.42,13.42,0,0,1,22.06.8a16.27,16.27,0,0,1,7.16,5.47,22,22,0,0,1,1.4,2.15A11.37,11.37,0,0,1,32,13.86C32.05,14,32,14.18,32.12,14.32Z"/><path class="cls-2" d="M32.12,14.32c-.15-.67-.29-1.34-.46-2-1.61-6-5.38-10-11.39-11.68A15.08,15.08,0,0,0,4.85,4.69a15.17,15.17,0,0,0-4,16.21c1.89,6,6.13,9.61,12.29,10.94.3.06.65,0,.88.28-4.51,0-9,0-13.55,0-.48,0-.58-.1-.58-.58Q-.11,16-.14.44c0-.48.1-.58.58-.58q15.56,0,31.12,0c.48,0,.58.1.58.58C32.11,5.06,32.12,9.69,32.12,14.32Z"/><path class="cls-2" d="M17.84,32.12c.88-.2,1.77-.35,2.62-.62A15.79,15.79,0,0,0,31.82,19.13c.08-.33,0-.7.3-1,0,4.46,0,8.93,0,13.39,0,.48-.1.58-.58.58C27,32.11,22.42,32.12,17.84,32.12Z"/><path class="cls-3" d="M18.67,13c-2,0-3.9,0-5.85,0-.58,0-.81-.15-.78-.77,0-1,0-2,0-3,0-.5.13-.72.67-.71H24.64c.5,0,.74.14.72.68,0,1-.05,2,0,3,0,.68-.27.8-.86.79C22.56,13,20.62,13,18.67,13Z"/><path class="cls-2" d="M16.76,18.81c-1.34,0-2.67,0-4,0-.49,0-.74-.11-.72-.67,0-1,0-2.07,0-3.11,0-.46.17-.61.61-.61H21c.46,0,.61.18.6.62q0,1.56,0,3.12c0,.49-.17.65-.65.65C19.53,18.79,18.14,18.81,16.76,18.81Z"/><path class="cls-2" d="M14.14,24.63c-2.2,0-2.2,0-2.2-2.22s0-2.17,2.16-2.15c.72,0,1.64-.31,2.1.12s.16,1.42.17,2.15c0,2.1,0,2.1-2.07,2.1Z"/><path class="cls-2" d="M8.91,18.81c-2.16,0-2.16,0-2.16-2.17s0-2.2,2.21-2.2,2.16,0,2.16,2.17S11.12,18.81,8.91,18.81Z"/></svg>