<svg id="Layer_1" data-name="Layer 1" xmlns="http://www.w3.org/2000/svg" viewBox="0 0 32 32"><defs><style>.cls-1{fill:#fff;}.cls-2{fill:#00003e;}.cls-3{fill:#008bd5;}.cls-4{fill:#008cd5;}.cls-5{fill:#fefefe;}</style></defs><circle class="cls-1" cx="16" cy="16" r="16"/><path class="cls-2" d="M10.74,15.39a5.85,5.85,0,0,1,1.4-3.73c.41-.52.89-1,1.34-1.46a8,8,0,0,0,2-3.53,11.83,11.83,0,0,0,.3-2.37s0-.09,0-.11.07,0,.11,0a4.89,4.89,0,0,1,1,1.27,7.84,7.84,0,0,1,1,3.78,3.39,3.39,0,0,1-.5,1.67A16.37,16.37,0,0,1,15.93,13a13.55,13.55,0,0,0-1.4,2.11A4,4,0,0,0,14,17.38a6.07,6.07,0,0,0,.75,2.34c.14.28.29.55.43.82,0,.07.09.16,0,.24s-.16,0-.24,0a4.31,4.31,0,0,1-1.93-.88,5.89,5.89,0,0,1-2.28-3.76A4.4,4.4,0,0,1,10.74,15.39Z"/><path class="cls-3" d="M21.26,15.61a5.22,5.22,0,0,1-2.38,4.26,1.61,1.61,0,0,1-.28.17,1.82,1.82,0,0,0-.78.7c-.06.1-.11.1-.19,0a4.31,4.31,0,0,1-1.08-4.43,10.13,10.13,0,0,1,1.2-2.45A12.93,12.93,0,0,0,19,11.56a3.8,3.8,0,0,0,.16-.55c0-.17.05-.18.18-.06a6.64,6.64,0,0,1,1,1.15A6.12,6.12,0,0,1,21.26,15.61Z"/><path class="cls-2" d="M11.63,25.7c0,.65,0,1.29,0,1.94,0,.15,0,.18-.18.17h-.38c-.18,0-.25-.08-.25-.26,0-.51,0-1,0-1.52,0-.13,0-.15-.15-.15q-.7,0-1.41,0c-.12,0-.16,0-.16.15,0,.54,0,1.09,0,1.63,0,.11,0,.16-.14.15h-.4c-.21,0-.27-.07-.27-.28,0-1.25,0-2.49,0-3.74,0-.36,0-.36.36-.36s.46,0,.46.46V25c0,.11,0,.15.13.14h1.44c.12,0,.14,0,.14-.14V23.57c0-.12,0-.15.14-.14s.24,0,.37,0,.3.08.3.3Z"/><path class="cls-3" d="M19.2,25V23.57c0-.1,0-.14.13-.14s.28,0,.42,0,.26.08.27.28v.72c0,.18,0,.18.16.13a1.58,1.58,0,0,1,1.95.72,1.27,1.27,0,0,1,.15.6c0,.23,0,.46,0,.69a1.44,1.44,0,0,1-1.32,1.23,1.6,1.6,0,0,1-1.29-.4,1.41,1.41,0,0,1-.45-1Z"/><path class="cls-2" d="M18.62,26.14a1.42,1.42,0,0,1-.35,1.17,1.55,1.55,0,0,1-1.6.44,1.32,1.32,0,0,1-1.07-1.08,2.58,2.58,0,0,1,0-1.14,1.56,1.56,0,0,1,3,.09A2.27,2.27,0,0,1,18.62,26.14Z"/><path class="cls-2" d="M12.2,25.63v-1c0-.1,0-.13.12-.13h.42c.19,0,.26.07.26.27,0,.58,0,1.16,0,1.74a.59.59,0,0,0,.85.55.56.56,0,0,0,.33-.54c0-.63,0-1.25,0-1.88,0-.12,0-.16.15-.15h.43a.21.21,0,0,1,.23.23c0,.66,0,1.32,0,2a1.21,1.21,0,0,1-1.15,1.12,2.49,2.49,0,0,1-.72,0,1.23,1.23,0,0,1-.92-1.17Z"/><path class="cls-3" d="M23.66,26.29c0,.46,0,.92,0,1.38,0,.1,0,.15-.13.14h-.42c-.19,0-.26-.08-.26-.27V24.8c0-.12,0-.16.15-.15s.27,0,.41,0,.24.08.24.25C23.66,25.36,23.66,25.83,23.66,26.29Z"/><path class="cls-4" d="M23.26,23.43a.46.46,0,1,1,0,.91.46.46,0,0,1-.45-.46A.45.45,0,0,1,23.26,23.43Z"/><path class="cls-5" d="M20,26.13a2.26,2.26,0,0,1,0-.26.72.72,0,0,1,1.43,0c0,.2,0,.39,0,.58a.71.71,0,0,1-1.42,0C20,26.33,20,26.23,20,26.13Z"/><path class="cls-5" d="M16.37,26.14v-.27a.73.73,0,0,1,1.45,0v.55a.73.73,0,0,1-1.45,0Z"/></svg>