<svg id="Layer_1" data-name="Layer 1" xmlns="http://www.w3.org/2000/svg" xmlns:xlink="http://www.w3.org/1999/xlink" viewBox="0 0 32 32"><defs><style>.cls-1{fill:none;}.cls-2{clip-path:url(#clip-path);}.cls-3{fill:#fefefe;}.cls-4{fill:#5741d8;}.cls-5{fill:#5741d9;}.cls-6{fill:#fff;}</style><clipPath id="clip-path"><circle class="cls-1" cx="16" cy="16" r="16"/></clipPath></defs><g class="cls-2"><ellipse class="cls-3" cx="16.3" cy="14.86" rx="26.55" ry="14.94"/><path class="cls-4" d="M26.35,16.53v2.39a3.1,3.1,0,0,1,0,.43,1.48,1.48,0,0,1-.75,1.06A1.43,1.43,0,0,1,24,20.24a1.41,1.41,0,0,1-.51-1,1.93,1.93,0,0,1,0-.24V15.29c0-.14,0-.28,0-.43a2.08,2.08,0,0,0-.07-.5,1.37,1.37,0,0,0-1.1-1,1.44,1.44,0,0,0-1.71,1.16,1.27,1.27,0,0,0,0,.28V19a1.67,1.67,0,0,1-.07.54,1.45,1.45,0,0,1-2.79-.08,2.23,2.23,0,0,1,0-.63c0-.08,0-.16,0-.24V14.74a1.48,1.48,0,0,0-1.2-1.45,1.44,1.44,0,0,0-1.7,1.32v4c0,.22,0,.43,0,.65a1.46,1.46,0,0,1-2.49.84,1.37,1.37,0,0,1-.39-.85,2.75,2.75,0,0,1,0-.41V14.73a1.45,1.45,0,0,0-2.4-1.11A1.41,1.41,0,0,0,9,14.67v4.42a1.56,1.56,0,0,1-.38,1,1.46,1.46,0,0,1-.76.43,1.42,1.42,0,0,1-1.27-.33,1.4,1.4,0,0,1-.47-1.07c0-1.52,0-3,0-4.55a10,10,0,0,1,1-4.26,10.44,10.44,0,0,1,1.7-2.52,11.29,11.29,0,0,1,1.45-1.31,9.31,9.31,0,0,1,3.38-1.67,8.61,8.61,0,0,1,1.5-.28,9.68,9.68,0,0,1,1.7,0,10.19,10.19,0,0,1,3.68.93A10.47,10.47,0,0,1,23,7.09a10.21,10.21,0,0,1,2.37,3.12,9.71,9.71,0,0,1,.86,2.62,10.73,10.73,0,0,1,.17,1.59C26.36,15.17,26.35,15.93,26.35,16.53Z"/><path class="cls-5" d="M14.23,24.73,14,25a1.64,1.64,0,0,1-.78.36,1.47,1.47,0,0,1-.9-.13,1,1,0,0,1-.56-.87,1.19,1.19,0,0,1,0-.42,1,1,0,0,1,.49-.7A1.66,1.66,0,0,1,12.9,23l1-.14a.32.32,0,0,0,.31-.28.81.81,0,0,0,0-.31.53.53,0,0,0-.33-.39,1.45,1.45,0,0,0-.65-.09,1.36,1.36,0,0,0-.29.06.64.64,0,0,0-.42.55v.05c0,.05,0,.07-.06.07H12s-.06,0-.06,0a1.21,1.21,0,0,1,.36-.88,1.45,1.45,0,0,1,.54-.27,1.82,1.82,0,0,1,.77-.07,2,2,0,0,1,.73.19.85.85,0,0,1,.51.82c0,.56,0,1.12,0,1.68,0,.19,0,.39,0,.58s.07.28.28.25.12,0,.12.1v.31s0,.06-.05.07a1,1,0,0,1-.6,0,.43.43,0,0,1-.29-.28C14.28,24.91,14.26,24.82,14.23,24.73Z"/><path class="cls-5" d="M21.24,23.48h-1.3s-.06,0-.05.06,0,.12,0,.18a1.35,1.35,0,0,0,.26.73.84.84,0,0,0,.5.32,1.05,1.05,0,0,0,.92-.21,1,1,0,0,0,.3-.44c0-.12,0-.12.16-.12h.43c.06,0,.07,0,.06.07a1.57,1.57,0,0,1-1.29,1.26,2.06,2.06,0,0,1-.82,0,1.6,1.6,0,0,1-1.05-1,2.31,2.31,0,0,1-.15-.68,2.67,2.67,0,0,1,.09-1.09,2.2,2.2,0,0,1,.25-.54,1.48,1.48,0,0,1,1.05-.73,1.6,1.6,0,0,1,1.24.23,1.48,1.48,0,0,1,.67,1,7.89,7.89,0,0,1,.08.85c0,.07,0,.07-.08.07Z"/><path class="cls-5" d="M24,21.85c.1-.08.17-.17.26-.25a1.4,1.4,0,0,1,1.1-.35,1.86,1.86,0,0,1,.34.06.92.92,0,0,1,.62.59,2.15,2.15,0,0,1,.12.67v2.59s0,0-.05,0h-.53s-.05,0-.05,0V25.1c0-.78,0-1.55,0-2.33a1.81,1.81,0,0,0-.07-.52.56.56,0,0,0-.53-.42,1,1,0,0,0-.77.21,1,1,0,0,0-.34.52A1.83,1.83,0,0,0,24,23c0,.69,0,1.38,0,2.07v0c0,.07,0,.07-.07.07h-.48c-.05,0-.07,0-.07-.07V21.46c0-.14,0-.13.12-.13s.27,0,.4,0,.07,0,.07.07v.45Z"/><path class="cls-5" d="M18.84,21.33a.81.81,0,0,1-.11.13l-1.2,1.21,0,0c-.07.07-.07.08,0,.17l.45.73c.31.49.62,1,.92,1.47l.07.12a.12.12,0,0,1-.08,0h-.59a.2.2,0,0,1-.19-.11L17.4,24,17,23.3c0-.07,0-.07-.1,0l-.38.38a.22.22,0,0,0-.08.19v1.29s0,.05-.05.05h-.45c-.08,0-.1,0-.11-.11s0-.15,0-.23V21.54a.92.92,0,0,1,0-.16s0-.05.06-.05h.45c.09,0,.09,0,.09.09V23s.06,0,.08-.06c.18-.17.35-.35.52-.53l.94-1a.19.19,0,0,1,.13-.07Z"/><path class="cls-5" d="M9,25.21H8.32a.15.15,0,0,1-.13-.09c-.11-.19-.23-.38-.34-.58l-.73-1.22s0-.06,0-.07-.05,0-.07.06a1,1,0,0,1-.21.2.63.63,0,0,0-.24.51c0,.09,0,.18,0,.27,0,.28,0,.56,0,.84,0,.07,0,.07-.07.07H6s-.07,0-.06-.06V21.46c0-.15,0-.13.13-.13h.34c.13,0,.12,0,.12.12v1.48s0,0,0,0h0c.21-.27.47-.5.7-.75l.57-.59.22-.22a.18.18,0,0,1,.13-.06h.71a.29.29,0,0,1-.07.08L7.61,22.69l0,0s0,.05,0,.09l.27.43c.39.63.78,1.25,1.16,1.88A.11.11,0,0,1,9,25.21Z"/><path class="cls-5" d="M10.15,21.94c.11-.12.19-.24.3-.36a1,1,0,0,1,.83-.32c.08,0,.08,0,.08.08v.52c0,.07,0,.08-.08.08a1.54,1.54,0,0,0-.37,0,.91.91,0,0,0-.68.66,1.4,1.4,0,0,0-.06.45v2c0,.09,0,.09-.09.09H9.64c-.07,0-.07,0-.07-.07V21.46c0-.13,0-.12.12-.12h.36c.1,0,.1,0,.1.1Z"/><path class="cls-6" d="M14.23,23.24c0,.18,0,.35,0,.51a.38.38,0,0,0,0,.1.82.82,0,0,1-.34.66,1.17,1.17,0,0,1-1,.23.57.57,0,0,1-.42-.65.54.54,0,0,1,.45-.52q.32-.08.63-.12A2.11,2.11,0,0,0,14.23,23.24Z"/><path class="cls-6" d="M20.93,23H20c-.08,0-.08,0-.08-.07a1,1,0,0,1,.51-.91,1,1,0,0,1,1,0,.78.78,0,0,1,.33.32,1.6,1.6,0,0,1,.18.61c0,.09,0,.09-.08.09Z"/></g></svg>